<?xml version="1.0" encoding="iso-8859-1"?>
<!-- Generator: Adobe Illustrator 18.1.1, SVG Export Plug-In . SVG Version: 6.00 Build 0)  -->
<svg version="1.1" id="Capa_1" xmlns="http://www.w3.org/2000/svg" xmlns:xlink="http://www.w3.org/1999/xlink" x="0px" y="0px"
	 viewBox="0 0 24.013 24.013" style="enable-background:new 0 0 24.013 24.013;" xml:space="preserve">
<g>
	<g>
		<g>
			<g>
				<path style="fill:#090609;" d="M11.454,3.239c-0.076,0.315-0.358,0.551-0.697,0.551c-0.397,0-0.72-0.323-0.72-0.72
					c0-0.031,0.005-0.061,0.009-0.09L5.904,2.214c0.299,0.185,0.499,0.513,0.499,0.89c0,0.58-0.47,1.051-1.051,1.051
					c-0.58,0-1.05-0.471-1.05-1.051c0-0.51,0.364-0.935,0.847-1.03l-0.63-0.116L0.4,4.685l23.211,0.801L11.454,3.239z M8.476,4.772
					c-0.219,0-0.396-0.177-0.396-0.396s0.176-0.397,0.396-0.397c0.219,0,0.396,0.178,0.396,0.397S8.694,4.772,8.476,4.772z"/>
			</g>
		</g>
		<g>
			<g>
				<path style="fill:#090609;" d="M0.4,22.055c-0.101,0-0.198-0.037-0.272-0.106C0.046,21.873,0,21.766,0,21.656V5.687
					c0-0.108,0.044-0.212,0.122-0.288C0.2,5.324,0.303,5.282,0.414,5.287l23.212,0.8c0.216,0.008,0.387,0.185,0.387,0.4v3.209
					c0,0.103-0.04,0.202-0.111,0.276c-0.251,0.263-0.39,0.606-0.39,0.964s0.139,0.701,0.39,0.964
					c0.071,0.075,0.111,0.174,0.111,0.276v7.697c0,0.209-0.162,0.384-0.37,0.399l-23.212,1.78C0.42,22.055,0.41,22.055,0.4,22.055z
					 M0.8,6.101v15.122l22.413-1.719v-7.176c-0.325-0.394-0.501-0.882-0.501-1.392s0.176-0.998,0.501-1.392v-2.67L0.8,6.101z
					 M13.106,18.695c-0.827,0-1.5-0.674-1.5-1.502c0-0.827,0.673-1.5,1.5-1.5c0.828,0,1.501,0.673,1.501,1.5
					C14.607,18.021,13.935,18.695,13.106,18.695z M13.106,16.493c-0.386,0-0.7,0.314-0.7,0.7c0,0.387,0.314,0.701,0.7,0.701
					s0.701-0.314,0.701-0.701C13.808,16.807,13.492,16.493,13.106,16.493z M18.519,14.072c-0.207,0-0.413-0.031-0.614-0.091
					c-1.133-0.338-1.778-1.535-1.44-2.668c0.269-0.902,1.113-1.532,2.055-1.532c0.206,0,0.413,0.03,0.614,0.09
					c1.133,0.339,1.779,1.536,1.44,2.669C20.305,13.442,19.46,14.072,18.519,14.072z M18.519,10.581
					c-0.591,0-1.119,0.395-1.289,0.96c-0.212,0.71,0.194,1.461,0.904,1.673c0.126,0.038,0.256,0.057,0.385,0.057
					c0.59,0,1.12-0.395,1.288-0.96c0.213-0.711-0.192-1.461-0.903-1.673C18.776,10.6,18.647,10.581,18.519,10.581z M8.789,14.072
					c-1.6,0-2.902-1.303-2.902-2.902c0-1.601,1.302-2.902,2.902-2.902s2.902,1.301,2.902,2.902
					C11.691,12.769,10.389,14.072,8.789,14.072z M8.789,9.069c-1.158,0-2.101,0.942-2.101,2.101s0.943,2.101,2.101,2.101
					c1.159,0,2.102-0.942,2.102-2.101S9.948,9.069,8.789,9.069z"/>
			</g>
		</g>
		<g>
			<path style="fill:#090609;" d="M4.402,17.403c-0.833,0-1.511-0.677-1.511-1.51c0-0.834,0.678-1.511,1.511-1.511
				s1.511,0.677,1.511,1.511C5.913,16.726,5.235,17.403,4.402,17.403z M4.402,15.182c-0.393,0-0.711,0.318-0.711,0.711
				c0,0.392,0.318,0.71,0.711,0.71c0.392,0,0.71-0.318,0.71-0.71C5.113,15.5,4.794,15.182,4.402,15.182z"/>
		</g>
	</g>
</g>
<g>
</g>
<g>
</g>
<g>
</g>
<g>
</g>
<g>
</g>
<g>
</g>
<g>
</g>
<g>
</g>
<g>
</g>
<g>
</g>
<g>
</g>
<g>
</g>
<g>
</g>
<g>
</g>
<g>
</g>
</svg>
