<svg id="logo" version="1.1" width="400" height="399.1836734693877" viewBox="0 0 400 399.1836734693877"
     xmlns="http://www.w3.org/2000/svg" xmlns-xlink="http://www.w3.org/1999/xlink">
    <g id="svgg">
        <path id="path0"
              d="M347.405 0.275 C 347.789 0.376,348.418 0.376,348.802 0.275 C 349.187 0.175,348.872 0.093,348.104 0.093 C 347.335 0.093,347.021 0.175,347.405 0.275 M340.557 2.231 C 335.916 4.553,331.116 9.688,328.196 15.453 C 326.669 18.470,327.301 17.842,329.231 14.426 C 332.829 8.054,337.461 3.625,342.581 1.658 C 343.752 1.208,344.420 0.831,344.066 0.819 C 343.711 0.808,342.132 1.443,340.557 2.231 M354.143 2.342 C 355.135 2.971,356.643 4.363,357.494 5.435 C 359.543 8.016,359.981 8.439,359.103 6.986 C 357.721 4.699,353.882 1.198,352.756 1.198 C 352.527 1.198,353.150 1.712,354.143 2.342 M197.904 3.475 C 198.398 3.570,199.207 3.570,199.701 3.475 C 200.195 3.380,199.790 3.302,198.802 3.302 C 197.814 3.302,197.410 3.380,197.904 3.475 M190.180 5.919 C 188.031 7.475,184.766 12.093,184.850 13.457 C 184.860 13.631,185.384 12.784,186.013 11.577 C 187.218 9.264,189.021 7.143,191.018 5.688 C 191.677 5.208,192.108 4.810,191.976 4.803 C 191.844 4.796,191.036 5.298,190.180 5.919 M212.005 8.283 C 212.021 8.448,212.694 9.112,213.502 9.759 L 214.970 10.935 213.594 9.460 C 212.173 7.935,211.956 7.774,212.005 8.283 M387.798 8.341 C 387.947 8.582,388.439 8.977,388.893 9.219 C 389.483 9.535,389.641 9.537,389.447 9.224 C 389.299 8.983,388.806 8.588,388.353 8.346 C 387.762 8.029,387.605 8.028,387.798 8.341 M390.749 11.030 C 391.632 12.639,392.522 13.514,391.839 12.101 C 391.500 11.402,391.024 10.706,390.781 10.556 C 390.465 10.360,390.456 10.495,390.749 11.030 M233.560 14.172 C 233.563 14.391,234.097 15.193,234.747 15.953 C 235.397 16.713,235.923 17.162,235.917 16.951 C 235.911 16.740,235.377 15.938,234.731 15.170 C 234.084 14.401,233.557 13.952,233.560 14.172 M304.923 24.940 C 302.437 26.764,299.353 31.413,298.428 34.731 C 298.275 35.279,298.874 34.273,299.759 32.495 C 301.562 28.870,304.370 25.498,306.540 24.351 C 307.334 23.932,307.715 23.585,307.385 23.580 C 307.056 23.576,305.948 24.188,304.923 24.940 M183.772 28.743 C 183.772 30.609,183.841 31.372,183.925 30.439 C 184.009 29.506,184.009 27.979,183.925 27.046 C 183.841 26.113,183.772 26.876,183.772 28.743 M252.344 32.335 C 252.337 32.665,252.578 33.473,252.880 34.132 C 253.586 35.673,253.596 34.956,252.894 33.134 C 252.598 32.365,252.351 32.006,252.344 32.335 M388.544 37.271 C 388.155 38.538,388.202 38.653,389.375 39.300 L 390.619 39.987 389.675 39.219 C 388.899 38.587,388.780 38.226,389.008 37.189 C 389.375 35.519,389.065 35.574,388.544 37.271 M180.667 38.551 C 179.944 39.275,179.883 39.521,180.425 39.521 C 180.637 39.521,181.003 39.162,181.238 38.723 C 181.751 37.764,181.523 37.696,180.667 38.551 M178.685 42.148 C 178.364 42.986,178.378 43.114,178.796 43.114 C 178.990 43.114,179.242 42.754,179.357 42.315 C 179.604 41.373,179.037 41.232,178.685 42.148 M395.210 42.751 C 395.210 42.863,396.207 43.984,397.426 45.243 C 398.646 46.502,399.468 47.211,399.254 46.820 C 398.838 46.060,395.210 42.410,395.210 42.751 M257.499 44.012 C 257.507 44.286,257.970 45.050,258.528 45.709 L 259.543 46.906 258.706 45.210 C 257.856 43.488,257.473 43.109,257.499 44.012 M259.481 47.487 C 259.481 47.697,259.930 48.531,260.479 49.339 C 261.685 51.116,261.767 50.836,260.671 48.687 C 259.878 47.133,259.481 46.733,259.481 47.487 M177.246 48.879 C 177.246 49.660,177.425 50.299,177.645 50.299 C 177.864 50.299,178.044 49.771,178.044 49.125 C 178.044 48.480,177.864 47.840,177.645 47.705 C 177.407 47.558,177.246 48.033,177.246 48.879 M279.885 53.138 C 279.392 53.597,279.096 54.079,279.226 54.210 C 279.357 54.340,279.853 54.057,280.328 53.582 C 281.456 52.454,281.053 52.050,279.885 53.138 M293.014 53.493 C 293.014 53.713,293.373 53.892,293.812 53.892 C 294.251 53.892,294.611 53.713,294.611 53.493 C 294.611 53.273,294.251 53.094,293.812 53.094 C 293.373 53.094,293.014 53.273,293.014 53.493 M178.443 54.556 C 178.443 55.181,180.473 58.211,181.037 58.427 C 181.544 58.622,181.579 58.523,181.233 57.875 C 181.000 57.441,180.637 57.086,180.425 57.086 C 180.213 57.086,180.040 56.816,180.040 56.487 C 180.040 56.158,179.850 55.888,179.617 55.888 C 179.385 55.888,179.305 55.709,179.441 55.489 C 179.577 55.269,179.487 55.090,179.242 55.090 C 178.996 55.090,178.906 54.910,179.042 54.691 C 179.178 54.471,179.098 54.291,178.866 54.291 C 178.633 54.291,178.443 54.410,178.443 54.556 M399.229 56.687 C 399.166 57.756,397.190 61.623,395.556 63.872 L 393.962 66.068 395.410 64.474 C 397.083 62.634,399.790 57.405,399.477 56.620 C 399.316 56.215,399.256 56.231,399.229 56.687 M184.631 61.839 C 185.455 62.791,187.625 64.463,187.625 64.147 C 187.625 64.049,186.771 63.282,185.729 62.443 C 184.686 61.604,184.192 61.333,184.631 61.839 M390.465 68.883 C 389.502 69.640,388.888 70.259,389.101 70.259 C 389.314 70.259,390.191 69.638,391.051 68.879 C 393.061 67.104,392.724 67.106,390.465 68.883 M265.216 72.854 C 265.217 75.050,265.284 75.897,265.365 74.737 C 265.446 73.577,265.445 71.781,265.363 70.745 C 265.281 69.710,265.215 70.659,265.216 72.854 M384.434 72.574 C 382.569 73.571,381.253 74.456,381.510 74.542 C 381.959 74.691,385.219 73.222,385.629 72.686 C 385.739 72.542,386.457 72.030,387.226 71.548 C 389.545 70.094,388.040 70.647,384.434 72.574 M278.762 85.828 C 278.762 87.036,278.837 87.530,278.929 86.926 C 279.020 86.322,279.020 85.334,278.929 84.731 C 278.837 84.127,278.762 84.621,278.762 85.828 M189.280 85.429 C 189.623 85.978,190.873 87.187,192.058 88.116 C 193.242 89.045,194.522 90.074,194.901 90.402 C 195.488 90.911,198.187 92.216,198.652 92.216 C 198.735 92.216,198.802 92.025,198.802 91.793 C 198.802 91.560,198.623 91.481,198.403 91.617 C 198.184 91.752,198.004 91.673,198.004 91.441 C 198.004 91.208,197.859 91.063,197.683 91.118 C 197.044 91.316,192.176 88.054,190.436 86.263 C 189.457 85.256,188.937 84.880,189.280 85.429 M377.338 87.425 C 377.338 88.194,377.420 88.508,377.521 88.124 C 377.621 87.740,377.621 87.111,377.521 86.727 C 377.420 86.342,377.338 86.657,377.338 87.425 M377.346 90.419 C 377.351 91.297,377.432 91.610,377.528 91.113 C 377.623 90.617,377.620 89.898,377.520 89.516 C 377.420 89.135,377.342 89.541,377.346 90.419 M199.202 92.118 C 199.202 92.337,199.471 92.741,199.800 93.014 C 200.134 93.291,200.399 93.334,200.399 93.112 C 200.399 92.892,200.130 92.489,199.800 92.216 C 199.466 91.938,199.202 91.895,199.202 92.118 M375.673 95.647 C 375.137 96.433,373.880 97.725,372.879 98.518 C 370.305 100.556,370.073 100.818,371.599 99.957 C 373.519 98.874,377.720 94.188,376.747 94.214 C 376.692 94.216,376.209 94.860,375.673 95.647 M199.294 98.603 C 199.294 99.371,199.376 99.686,199.477 99.301 C 199.577 98.917,199.577 98.288,199.477 97.904 C 199.376 97.520,199.294 97.834,199.294 98.603 M275.913 99.219 C 275.244 100.687,275.372 101.000,276.095 99.665 C 276.433 99.042,276.634 98.458,276.543 98.366 C 276.452 98.275,276.168 98.659,275.913 99.219 M273.334 104.811 C 272.521 106.454,271.865 107.929,271.876 108.090 C 271.887 108.251,272.617 106.973,273.499 105.248 C 274.380 103.524,275.036 102.048,274.956 101.969 C 274.877 101.890,274.147 103.168,273.334 104.811 M211.976 112.176 C 212.750 112.676,213.174 112.676,213.174 112.176 C 213.174 111.956,212.769 111.779,212.275 111.783 C 211.549 111.788,211.492 111.863,211.976 112.176 M269.080 112.541 C 268.835 112.999,268.801 113.373,269.005 113.373 C 269.415 113.373,269.982 112.164,269.702 111.885 C 269.605 111.788,269.325 112.083,269.080 112.541 M213.628 112.748 C 214.240 113.298,217.964 114.907,217.964 114.621 C 217.964 114.421,217.515 114.145,216.966 114.008 C 216.417 113.870,215.968 113.570,215.968 113.342 C 215.968 113.114,215.788 113.038,215.569 113.174 C 215.349 113.309,215.170 113.268,215.170 113.083 C 215.170 112.897,214.790 112.716,214.326 112.681 C 213.862 112.646,213.548 112.676,213.628 112.748 M267.084 116.133 C 266.839 116.592,266.805 116.966,267.009 116.966 C 267.419 116.966,267.986 115.757,267.706 115.478 C 267.609 115.380,267.329 115.676,267.084 116.133 M348.715 115.885 C 348.544 116.279,348.516 116.713,348.653 116.850 C 349.059 117.256,349.385 116.686,349.199 115.900 C 349.033 115.202,349.012 115.202,348.715 115.885 M263.933 121.418 C 262.579 123.650,261.533 125.538,261.608 125.614 C 261.684 125.689,262.871 123.943,264.247 121.732 C 265.623 119.522,266.669 117.634,266.572 117.536 C 266.474 117.439,265.287 119.186,263.933 121.418 M346.390 120.758 C 345.167 122.292,345.481 122.697,346.777 121.257 C 347.828 120.090,348.232 119.361,347.828 119.361 C 347.650 119.361,347.003 119.990,346.390 120.758 M311.876 122.032 C 312.260 122.132,312.889 122.132,313.273 122.032 C 313.658 121.931,313.343 121.849,312.575 121.849 C 311.806 121.849,311.492 121.931,311.876 122.032 M318.069 122.039 C 318.565 122.134,319.284 122.131,319.665 122.031 C 320.047 121.931,319.641 121.853,318.762 121.857 C 317.884 121.862,317.572 121.943,318.069 122.039 M294.411 126.817 C 293.313 127.384,292.355 128.006,292.281 128.198 C 292.208 128.390,291.983 128.446,291.782 128.322 C 291.581 128.198,291.417 128.297,291.417 128.543 C 291.417 128.788,291.238 128.878,291.018 128.743 C 290.798 128.607,290.619 128.686,290.619 128.919 C 290.619 129.547,294.781 127.845,295.409 126.959 C 295.519 126.805,295.968 126.475,296.407 126.226 C 297.993 125.326,296.360 125.810,294.411 126.817 M256.066 128.578 C 255.919 128.816,255.998 129.212,256.242 129.456 C 256.569 129.782,256.687 129.667,256.687 129.022 C 256.687 128.058,256.479 127.910,256.066 128.578 M225.294 132.136 C 225.294 134.222,225.361 135.075,225.443 134.032 C 225.525 132.989,225.525 131.282,225.443 130.240 C 225.361 129.197,225.294 130.050,225.294 132.136 M257.175 131.426 C 256.412 132.188,256.287 132.216,256.287 131.626 C 256.287 131.248,256.108 130.938,255.888 130.938 C 255.669 130.938,255.489 131.208,255.489 131.537 C 255.489 131.866,255.679 132.136,255.912 132.136 C 256.144 132.136,256.206 132.360,256.050 132.635 C 255.893 132.909,256.331 132.606,257.024 131.961 C 258.186 130.880,258.461 130.539,258.173 130.539 C 258.112 130.539,257.662 130.938,257.175 131.426 M287.038 130.923 C 286.715 131.127,286.548 131.392,286.667 131.511 C 286.787 131.631,287.231 131.466,287.654 131.146 C 288.496 130.510,287.984 130.324,287.038 130.923 M281.663 134.546 C 280.140 135.636,279.019 136.527,279.172 136.527 C 279.494 136.527,285.030 132.888,285.030 132.676 C 285.030 132.274,284.173 132.750,281.663 134.546 M176.148 134.806 C 176.532 134.907,177.161 134.907,177.545 134.806 C 177.929 134.706,177.615 134.624,176.846 134.624 C 176.078 134.624,175.763 134.706,176.148 134.806 M316.075 136.417 C 316.793 136.506,317.870 136.504,318.470 136.413 C 319.070 136.322,318.483 136.249,317.166 136.251 C 315.848 136.254,315.358 136.328,316.075 136.417 M328.244 136.419 C 329.067 136.505,330.414 136.505,331.238 136.419 C 332.061 136.332,331.387 136.262,329.741 136.262 C 328.094 136.262,327.420 136.332,328.244 136.419 M337.824 136.802 C 338.209 136.903,338.837 136.903,339.222 136.802 C 339.606 136.702,339.291 136.620,338.523 136.620 C 337.754 136.620,337.440 136.702,337.824 136.802 M277.046 137.725 C 276.497 138.154,276.228 138.505,276.447 138.505 C 276.667 138.505,277.295 138.154,277.844 137.725 C 278.393 137.295,278.663 136.944,278.443 136.944 C 278.224 136.944,277.595 137.295,277.046 137.725 M353.471 139.045 C 353.899 139.307,355.151 140.329,356.254 141.317 C 357.599 142.522,358.053 142.785,357.632 142.116 C 356.899 140.952,353.845 138.512,353.163 138.546 C 352.905 138.559,353.044 138.784,353.471 139.045 M273.653 140.172 C 272.774 140.830,271.876 141.552,271.657 141.777 C 271.108 142.339,273.818 140.703,275.050 139.729 C 276.650 138.464,275.410 138.857,273.653 140.172 M145.321 140.503 C 144.998 140.708,144.831 140.972,144.951 141.092 C 145.070 141.211,145.514 141.047,145.937 140.727 C 146.779 140.090,146.268 139.905,145.321 140.503 M201.770 141.581 C 202.854 142.144,203.989 142.854,204.294 143.159 C 204.598 143.463,205.089 143.713,205.384 143.713 C 205.680 143.713,205.981 143.847,206.055 144.012 C 206.128 144.177,206.996 144.815,207.984 145.431 C 209.704 146.504,209.456 146.206,206.942 144.181 C 205.749 143.221,200.656 140.505,200.110 140.538 C 199.940 140.548,200.687 141.017,201.770 141.581 M143.325 141.302 C 143.002 141.506,142.842 141.777,142.968 141.904 C 143.283 142.218,144.511 141.717,144.511 141.275 C 144.511 140.820,144.071 140.830,143.325 141.302 M141.018 142.603 C 140.524 142.841,140.120 143.188,140.120 143.374 C 140.120 143.937,140.745 143.757,141.717 142.914 C 142.718 142.046,142.435 141.920,141.018 142.603 M358.900 143.934 C 359.184 144.275,359.789 144.754,360.247 144.997 C 360.959 145.376,360.936 145.288,360.080 144.383 C 359.020 143.262,358.029 142.885,358.900 143.934 M138.921 144.012 C 138.921 144.177,138.113 144.822,137.125 145.446 C 136.137 146.070,135.329 146.671,135.329 146.782 C 135.329 146.894,135.913 146.598,136.627 146.125 C 137.340 145.653,138.328 145.068,138.822 144.825 C 139.741 144.373,140.038 143.713,139.321 143.713 C 139.102 143.713,138.922 143.847,138.921 144.012 M267.665 144.910 C 266.547 146.077,266.540 146.108,267.414 146.108 C 267.945 146.108,268.204 145.935,268.048 145.683 C 267.904 145.450,268.101 144.911,268.486 144.486 C 269.612 143.241,268.922 143.598,267.665 144.910 M210.013 147.006 C 210.105 147.061,210.719 147.555,211.377 148.104 L 212.575 149.102 211.607 148.004 C 211.075 147.400,210.461 146.906,210.243 146.906 C 210.025 146.906,209.922 146.951,210.013 147.006 M214.754 150.998 C 215.733 152.041,216.586 152.894,216.650 152.894 C 216.950 152.894,216.633 152.536,214.870 150.882 L 212.974 149.102 214.754 150.998 M376.446 150.798 C 376.968 151.512,377.458 152.096,377.534 152.096 C 377.837 152.096,376.848 150.599,376.193 150.067 C 375.762 149.717,375.858 149.996,376.446 150.798 M126.646 154.092 C 122.803 157.842,122.001 158.882,122.954 158.882 C 123.174 158.882,123.353 158.703,123.353 158.483 C 123.353 158.263,123.668 157.760,124.052 157.364 C 132.203 148.965,133.240 147.657,126.646 154.092 M218.363 154.219 C 218.363 154.514,242.069 178.024,242.217 177.876 C 242.402 177.691,218.969 154.092,218.601 154.092 C 218.470 154.092,218.363 154.149,218.363 154.219 M121.239 160.211 C 120.307 161.633,120.384 162.015,121.386 160.940 C 121.841 160.451,122.147 159.854,122.066 159.612 C 121.986 159.370,121.614 159.640,121.239 160.211 M231.798 162.176 C 233.920 164.588,248.984 179.242,249.340 179.242 C 249.535 179.242,245.565 175.110,240.519 170.060 C 235.473 165.010,231.189 160.878,231.000 160.878 C 230.811 160.878,231.170 161.462,231.798 162.176 M384.331 165.281 C 385.484 165.942,386.427 166.659,386.427 166.874 C 386.427 167.089,386.635 167.265,386.888 167.265 C 387.638 167.265,385.949 165.646,384.347 164.828 C 382.022 163.641,382.012 163.951,384.331 165.281 M115.968 169.261 C 115.627 169.920,115.439 170.459,115.548 170.459 C 115.658 170.459,116.027 169.920,116.367 169.261 C 116.708 168.603,116.897 168.064,116.787 168.064 C 116.677 168.064,116.309 168.603,115.968 169.261 M113.972 172.854 C 113.631 173.513,113.443 174.052,113.552 174.052 C 113.662 174.052,114.031 173.513,114.371 172.854 C 114.712 172.196,114.901 171.657,114.791 171.657 C 114.681 171.657,114.313 172.196,113.972 172.854 M111.383 177.481 C 110.468 179.148,109.790 180.582,109.877 180.668 C 109.963 180.754,110.797 179.391,111.731 177.638 C 112.665 175.885,113.343 174.451,113.238 174.451 C 113.132 174.451,112.298 175.815,111.383 177.481 M264.371 175.535 C 264.975 175.627,265.963 175.627,266.567 175.535 C 267.171 175.444,266.677 175.369,265.469 175.369 C 264.261 175.369,263.767 175.444,264.371 175.535 M255.888 177.046 C 255.120 177.342,254.760 177.584,255.090 177.584 C 255.419 177.584,256.317 177.342,257.086 177.046 C 257.854 176.750,258.214 176.508,257.884 176.508 C 257.555 176.508,256.657 176.750,255.888 177.046 M284.032 180.485 C 284.691 181.226,285.274 181.908,285.329 182.001 C 285.384 182.093,285.548 182.050,285.693 181.905 C 286.015 181.583,284.736 180.119,283.637 179.552 C 283.051 179.250,283.158 179.502,284.032 180.485 M244.311 180.289 C 244.311 180.500,245.165 181.473,246.208 182.452 L 248.104 184.232 246.307 182.243 C 245.319 181.149,244.466 180.176,244.411 180.081 C 244.356 179.985,244.311 180.079,244.311 180.289 M285.828 182.758 C 285.828 182.936,286.092 183.430,286.414 183.856 C 287.013 184.647,287.220 184.204,286.784 183.067 C 286.533 182.414,285.828 182.187,285.828 182.758 M389.059 185.329 C 390.128 186.482,391.186 187.492,391.409 187.573 C 391.633 187.654,390.834 186.711,389.634 185.477 C 386.880 182.645,386.474 182.541,389.059 185.329 M287.040 185.130 C 287.048 185.294,287.311 185.878,287.625 186.427 C 288.219 187.467,288.480 186.761,287.981 185.462 C 287.738 184.827,287.014 184.571,287.040 185.130 M250.817 187.789 C 252.057 189.306,253.821 192.001,254.737 193.777 C 256.632 197.453,256.608 197.417,256.913 197.112 C 257.163 196.863,255.400 193.203,254.502 192.108 C 254.191 191.728,253.136 190.338,252.158 189.020 C 251.179 187.701,249.970 186.264,249.471 185.826 C 248.971 185.388,249.577 186.271,250.817 187.789 M105.608 187.588 C 105.257 188.267,105.123 188.822,105.312 188.822 C 105.770 188.822,106.784 186.891,106.484 186.590 C 106.353 186.460,105.959 186.909,105.608 187.588 M392.535 189.222 C 392.900 189.770,393.829 191.297,394.598 192.615 C 395.367 193.932,395.998 194.820,396.002 194.587 C 396.010 194.013,393.323 189.567,392.518 188.822 C 391.944 188.291,391.945 188.336,392.535 189.222 M103.806 190.819 C 103.520 191.368,102.396 193.478,101.309 195.509 C 100.222 197.540,99.421 199.202,99.530 199.202 C 99.639 199.202,100.488 197.809,101.416 196.108 C 102.345 194.406,103.453 192.517,103.879 191.910 C 104.305 191.303,104.580 190.585,104.489 190.315 C 104.394 190.030,104.107 190.242,103.806 190.819 M293.220 199.314 C 293.605 199.925,294.021 200.324,294.144 200.201 C 294.266 200.078,293.951 199.579,293.443 199.091 L 292.519 198.204 293.220 199.314 M308.184 199.430 C 308.184 199.555,308.453 199.927,308.782 200.257 C 309.432 200.907,309.514 200.810,309.139 199.833 C 308.911 199.240,308.184 198.932,308.184 199.430 M309.618 201.996 C 309.977 203.336,312.345 207.986,313.175 208.982 C 313.576 209.462,313.508 209.203,313.006 208.333 C 312.547 207.537,311.537 205.561,310.761 203.942 C 309.985 202.323,309.470 201.447,309.618 201.996 M96.806 203.992 C 96.466 204.651,96.277 205.190,96.387 205.190 C 96.496 205.190,96.865 204.651,97.206 203.992 C 97.546 203.333,97.735 202.794,97.625 202.794 C 97.516 202.794,97.147 203.333,96.806 203.992 M93.812 209.581 C 93.147 210.898,92.693 211.976,92.803 211.976 C 92.913 211.976,93.547 210.898,94.212 209.581 C 94.877 208.263,95.331 207.186,95.221 207.186 C 95.111 207.186,94.477 208.263,93.812 209.581 M394.665 209.571 C 393.751 210.952,391.455 213.012,388.975 214.676 C 388.562 214.954,388.836 214.890,389.584 214.534 C 391.265 213.734,394.365 210.865,395.332 209.215 C 396.366 207.450,395.906 207.695,394.665 209.571 M333.973 212.802 C 333.117 213.445,332.578 213.968,332.775 213.963 C 332.972 213.958,333.583 213.603,334.132 213.174 C 335.338 212.230,335.872 212.185,336.527 212.974 C 336.800 213.303,337.213 213.573,337.444 213.573 C 337.675 213.573,337.442 213.124,336.926 212.575 C 335.790 211.366,335.893 211.358,333.973 212.802 M91.197 214.411 C 90.630 215.531,90.233 216.514,90.315 216.595 C 90.396 216.677,90.945 215.761,91.535 214.560 C 92.124 213.358,92.521 212.375,92.418 212.375 C 92.314 212.375,91.765 213.291,91.197 214.411 M318.164 214.554 C 318.164 214.827,321.768 216.888,321.942 216.714 C 322.024 216.632,321.208 216.071,320.128 215.468 C 319.047 214.865,318.164 214.454,318.164 214.554 M328.942 215.968 C 328.174 216.389,327.725 216.733,327.944 216.733 C 328.164 216.733,328.972 216.389,329.741 215.968 C 330.509 215.547,330.958 215.203,330.739 215.203 C 330.519 215.203,329.711 215.547,328.942 215.968 M341.174 217.365 C 343.217 219.835,344.443 220.960,344.753 220.650 C 345.120 220.282,344.708 219.808,342.018 217.506 L 339.522 215.369 341.174 217.365 M376.162 216.663 C 377.433 216.742,379.409 216.741,380.553 216.661 C 381.698 216.581,380.659 216.516,378.244 216.517 C 375.828 216.517,374.892 216.583,376.162 216.663 M365.753 217.805 C 365.470 218.112,365.342 218.363,365.469 218.363 C 365.596 218.363,365.333 218.756,364.886 219.237 C 364.004 220.184,363.844 220.758,364.463 220.758 C 364.847 220.758,366.645 217.603,366.395 217.367 C 366.325 217.300,366.036 217.498,365.753 217.805 M88.623 218.762 C 88.388 219.202,88.338 219.561,88.513 219.561 C 88.687 219.561,89.054 219.202,89.329 218.762 C 89.605 218.320,89.654 217.964,89.439 217.964 C 89.225 217.964,88.858 218.323,88.623 218.762 M346.269 221.898 C 347.114 222.850,347.305 222.936,347.305 222.369 C 347.305 222.157,346.901 221.772,346.407 221.513 C 345.514 221.044,345.513 221.046,346.269 221.898 M361.923 222.781 C 361.070 223.659,360.442 224.447,360.528 224.533 C 360.693 224.698,364.072 221.657,364.072 221.343 C 364.072 220.837,363.325 221.337,361.923 222.781 M83.857 227.895 C 81.165 233.259,81.292 233.569,84.067 228.406 C 85.288 226.135,86.195 224.185,86.082 224.073 C 85.970 223.960,84.968 225.680,83.857 227.895 M261.969 227.545 C 261.969 228.313,262.051 228.628,262.151 228.244 C 262.252 227.859,262.252 227.231,262.151 226.846 C 262.051 226.462,261.969 226.776,261.969 227.545 M84.631 236.969 C 84.631 237.433,88.694 242.315,89.080 242.315 C 89.539 242.315,89.192 241.628,88.174 240.519 C 86.310 238.488,85.429 237.381,85.429 237.067 C 85.429 236.880,85.250 236.727,85.030 236.727 C 84.810 236.727,84.631 236.836,84.631 236.969 M184.431 241.500 C 184.431 241.713,184.790 242.080,185.230 242.315 C 185.669 242.550,186.028 242.600,186.028 242.425 C 186.028 242.251,185.669 241.884,185.230 241.610 C 184.787 241.333,184.431 241.284,184.431 241.500 M89.434 243.014 C 89.441 243.179,89.909 243.651,90.474 244.063 L 91.502 244.812 90.815 243.763 C 90.165 242.772,89.406 242.360,89.434 243.014 M186.217 243.131 C 185.944 243.573,186.800 244.870,187.140 244.530 C 187.250 244.420,187.089 244.022,186.783 243.646 C 186.059 242.753,186.116 242.787,192.615 247.115 C 197.594 250.431,200.248 252.031,199.401 251.206 C 198.904 250.721,186.873 242.715,186.642 242.715 C 186.550 242.715,186.358 242.902,186.217 243.131 M187.874 245.609 C 188.547 246.742,192.576 251.470,192.734 251.312 C 192.907 251.138,188.060 245.110,187.747 245.110 C 187.654 245.110,187.711 245.334,187.874 245.609 M69.624 250.794 C 68.118 253.508,68.123 253.493,68.629 253.493 C 68.867 253.493,69.062 253.239,69.062 252.927 C 69.062 252.616,69.197 252.302,69.361 252.229 C 70.061 251.918,71.853 248.703,71.327 248.703 C 71.029 248.703,70.263 249.644,69.624 250.794 M72.255 249.525 C 72.255 249.757,72.420 249.846,72.621 249.722 C 72.821 249.598,73.066 249.722,73.165 249.998 C 73.263 250.273,73.498 250.355,73.686 250.178 C 73.875 250.001,73.765 249.690,73.442 249.485 C 72.664 248.994,72.255 249.007,72.255 249.525 M74.251 250.722 C 74.251 250.955,74.416 251.043,74.617 250.919 C 74.817 250.795,75.062 250.919,75.161 251.195 C 75.259 251.471,75.494 251.552,75.682 251.375 C 75.871 251.199,75.761 250.887,75.438 250.683 C 74.660 250.191,74.251 250.205,74.251 250.722 M76.248 251.822 C 76.248 252.090,77.794 253.017,79.608 253.838 C 80.337 254.168,78.421 252.392,77.571 251.950 C 76.536 251.412,76.248 251.384,76.248 251.822 M193.214 252.210 C 193.214 252.408,193.599 252.913,194.070 253.331 C 194.921 254.087,194.923 254.086,194.467 253.216 C 193.958 252.245,193.214 251.648,193.214 252.210 M98.586 253.815 C 99.082 254.542,99.594 255.030,99.723 254.901 C 99.852 254.772,99.446 254.178,98.821 253.581 L 97.685 252.495 98.586 253.815 M204.046 254.643 C 204.216 255.143,217.224 263.947,217.453 263.718 C 217.538 263.633,215.667 262.250,213.295 260.645 C 210.923 259.039,208.200 257.129,207.245 256.400 C 205.029 254.710,203.848 254.061,204.046 254.643 M252.771 257.592 C 251.825 259.399,251.231 260.699,251.451 260.479 C 252.084 259.848,255.059 254.291,254.760 254.298 C 254.612 254.302,253.717 255.784,252.771 257.592 M66.685 256.253 C 66.440 256.711,66.406 257.086,66.610 257.086 C 67.020 257.086,67.587 255.877,67.307 255.597 C 67.210 255.500,66.930 255.795,66.685 256.253 M100.200 255.764 C 100.200 255.984,100.559 256.489,100.998 256.886 C 101.437 257.284,101.796 257.429,101.796 257.210 C 101.796 256.990,101.437 256.485,100.998 256.088 C 100.559 255.690,100.200 255.545,100.200 255.764 M102.208 258.184 C 102.228 258.658,106.161 262.919,106.169 262.475 C 106.173 262.255,105.460 261.282,104.585 260.312 C 103.710 259.341,102.994 258.398,102.994 258.216 C 102.994 258.033,102.814 257.884,102.595 257.884 C 102.375 257.884,102.201 258.019,102.208 258.184 M64.457 260.379 L 63.824 261.677 64.638 260.679 C 65.421 259.718,65.677 259.082,65.280 259.082 C 65.176 259.082,64.805 259.666,64.457 260.379 M199.812 260.367 C 200.245 260.964,200.749 261.458,200.931 261.465 C 201.536 261.487,200.971 260.558,199.990 259.914 L 199.025 259.281 199.812 260.367 M90.652 260.426 C 91.309 261.006,97.543 264.666,97.666 264.543 C 97.846 264.363,91.272 260.279,90.802 260.279 C 90.628 260.279,90.561 260.346,90.652 260.426 M250.452 261.577 C 249.077 263.908,248.988 264.107,249.688 263.273 C 250.499 262.307,251.198 261.078,250.936 261.078 C 250.831 261.078,250.613 261.302,250.452 261.577 M62.694 263.434 C 62.235 264.334,61.936 265.070,62.028 265.070 C 62.328 265.070,63.911 262.181,63.717 261.987 C 63.613 261.883,63.153 262.535,62.694 263.434 M201.878 262.862 C 202.600 263.855,203.194 264.158,203.194 263.535 C 203.194 263.139,201.864 261.876,201.447 261.876 C 201.289 261.876,201.483 262.320,201.878 262.862 M106.675 263.539 C 106.760 263.794,107.269 264.280,107.806 264.618 L 108.782 265.233 107.815 264.153 C 106.770 262.988,106.431 262.805,106.675 263.539 M203.830 265.142 C 204.249 265.621,204.860 266.308,205.190 266.669 C 205.519 267.030,206.403 268.074,207.155 268.989 C 207.906 269.905,208.600 270.575,208.697 270.478 C 208.956 270.219,203.955 264.271,203.477 264.271 C 203.253 264.271,203.412 264.663,203.830 265.142 M60.078 268.094 C 59.270 269.538,58.681 270.790,58.768 270.877 C 58.855 270.964,59.603 269.783,60.429 268.252 C 61.256 266.721,61.845 265.469,61.739 265.469 C 61.633 265.469,60.885 266.650,60.078 268.094 M108.982 265.732 C 108.982 265.950,109.476 266.564,110.080 267.096 L 111.178 268.064 110.180 266.866 C 109.631 266.208,109.137 265.594,109.082 265.502 C 109.027 265.411,108.982 265.514,108.982 265.732 M221.756 266.555 C 221.976 266.777,223.862 268.092,225.948 269.475 C 228.034 270.859,229.798 272.134,229.869 272.308 C 230.097 272.874,232.769 274.350,233.052 274.067 C 233.203 273.916,233.025 273.623,232.656 273.417 C 232.287 273.211,229.863 271.643,227.270 269.933 C 222.043 266.487,221.148 265.939,221.756 266.555 M113.978 271.969 C 114.364 272.579,114.779 272.978,114.902 272.856 C 115.025 272.733,114.709 272.233,114.201 271.745 L 113.277 270.858 113.978 271.969 M108.982 271.607 C 108.982 271.720,114.678 275.075,116.646 276.121 C 117.076 276.349,116.656 274.641,116.126 274.002 C 115.867 273.689,115.562 273.527,115.448 273.641 C 115.334 273.754,115.567 274.208,115.966 274.648 C 117.118 275.921,116.213 275.595,112.651 273.452 C 109.434 271.518,108.982 271.290,108.982 271.607 M240.995 273.453 C 239.972 274.551,238.952 275.449,238.729 275.449 C 238.506 275.449,238.323 275.639,238.323 275.872 C 238.323 276.104,238.180 276.206,238.005 276.098 C 237.830 275.990,237.426 276.066,237.107 276.268 C 236.643 276.561,236.689 276.636,237.336 276.641 C 238.608 276.650,242.233 273.859,243.161 272.156 C 243.874 270.846,242.860 271.453,240.995 273.453 M233.533 274.507 C 233.533 274.817,234.811 275.818,235.230 275.836 C 235.394 275.843,235.529 275.669,235.529 275.449 C 235.529 275.230,235.259 275.050,234.930 275.050 C 234.601 275.050,234.331 274.870,234.331 274.651 C 234.331 274.431,234.152 274.251,233.932 274.251 C 233.713 274.251,233.533 274.366,233.533 274.507 M55.689 276.248 C 55.348 276.906,55.159 277.445,55.269 277.445 C 55.379 277.445,55.747 276.906,56.088 276.248 C 56.428 275.589,56.617 275.050,56.508 275.050 C 56.398 275.050,56.029 275.589,55.689 276.248 M53.812 279.410 C 52.868 280.512,52.210 281.836,52.607 281.836 C 52.794 281.836,53.351 281.118,53.844 280.240 C 54.829 278.487,54.819 278.233,53.812 279.410 M50.624 284.657 C 48.339 288.781,47.861 289.820,48.250 289.820 C 48.451 289.820,48.729 289.371,48.867 288.822 C 49.004 288.273,49.304 287.824,49.532 287.824 C 49.760 287.824,49.836 287.645,49.701 287.425 C 49.565 287.206,49.632 287.026,49.850 287.026 C 50.067 287.026,50.373 286.625,50.528 286.135 C 50.684 285.646,51.166 284.765,51.599 284.178 C 52.033 283.592,52.311 282.882,52.217 282.600 C 52.124 282.319,51.406 283.245,50.624 284.657 M218.414 282.933 C 218.716 283.316,219.171 283.852,219.425 284.123 C 219.680 284.394,219.970 284.844,220.069 285.123 C 220.169 285.401,220.383 285.506,220.545 285.356 C 220.892 285.033,218.850 282.236,218.267 282.236 C 218.047 282.236,218.113 282.549,218.414 282.933 M220.758 286.354 C 220.758 286.643,220.040 287.283,219.162 287.776 C 218.283 288.270,217.565 288.763,217.565 288.873 C 217.565 288.982,218.463 288.583,219.561 287.985 C 221.344 287.015,222.222 285.828,221.158 285.828 C 220.938 285.828,220.758 286.065,220.758 286.354 M215.469 289.852 C 215.085 290.076,214.770 290.424,214.770 290.626 C 214.770 291.168,215.871 290.650,216.124 289.989 C 216.379 289.324,216.377 289.324,215.469 289.852 M208.328 294.231 L 207.385 295.049 208.683 294.421 C 209.959 293.802,210.323 293.413,209.625 293.413 C 209.430 293.413,208.846 293.781,208.328 294.231 M203.104 297.119 C 201.188 298.239,199.687 299.222,199.769 299.303 C 199.931 299.465,207.186 295.417,207.186 295.165 C 207.186 294.814,206.418 295.182,203.104 297.119 M44.098 296.707 L 43.465 298.004 44.278 297.006 C 45.062 296.045,45.317 295.409,44.920 295.409 C 44.816 295.409,44.446 295.993,44.098 296.707 M40.646 302.887 C 38.369 307.055,37.900 308.055,38.818 306.786 C 39.703 305.565,43.206 299.002,42.974 299.002 C 42.861 299.002,41.814 300.750,40.646 302.887 M189.521 304.618 C 188.698 305.053,188.024 305.497,188.024 305.606 C 188.024 305.715,188.743 305.438,189.621 304.990 C 190.499 304.542,191.218 304.089,191.218 303.984 C 191.218 303.723,191.215 303.724,189.521 304.618 M184.731 307.281 C 182.076 308.734,181.270 309.507,182.834 309.098 C 183.273 308.983,183.633 308.733,183.633 308.543 C 183.633 308.353,184.531 307.742,185.629 307.186 C 186.727 306.629,187.625 306.087,187.625 305.981 C 187.625 305.695,187.640 305.689,184.731 307.281 M179.869 310.009 C 179.446 310.318,179.190 310.660,179.300 310.770 C 179.410 310.880,179.845 310.717,180.268 310.408 C 180.691 310.099,180.947 309.756,180.837 309.646 C 180.727 309.536,180.292 309.699,179.869 310.009 M175.261 312.559 C 174.938 312.764,174.772 313.028,174.891 313.148 C 175.010 313.267,175.454 313.103,175.877 312.783 C 176.719 312.146,176.208 311.961,175.261 312.559 M34.132 314.172 C 33.791 314.830,33.658 315.369,33.836 315.369 C 34.014 315.369,34.478 314.830,34.867 314.172 C 35.256 313.513,35.389 312.974,35.163 312.974 C 34.936 312.974,34.472 313.513,34.132 314.172 M168.391 316.488 C 165.827 317.953,163.789 319.212,163.864 319.287 C 164.019 319.441,173.653 314.168,173.653 313.929 C 173.653 313.556,172.791 313.975,168.391 316.488 M30.418 320.912 C 29.057 323.372,27.944 325.479,27.944 325.595 C 27.944 326.143,29.036 324.571,29.708 323.054 C 30.122 322.121,30.613 321.357,30.799 321.357 C 30.985 321.357,31.138 321.130,31.138 320.851 C 31.138 320.573,31.599 319.666,32.163 318.837 C 32.727 318.007,33.121 317.128,33.040 316.884 C 32.958 316.640,31.779 318.452,30.418 320.912 M157.585 322.384 C 156.092 323.194,156.183 323.531,157.685 322.754 C 158.343 322.414,158.882 322.050,158.882 321.946 C 158.882 321.689,158.839 321.703,157.585 322.384 M151.697 325.625 C 149.830 326.647,148.243 327.633,148.169 327.816 C 148.096 327.999,147.871 328.047,147.670 327.923 C 147.470 327.799,147.305 327.888,147.305 328.120 C 147.305 328.353,147.390 328.543,147.494 328.543 C 147.997 328.543,151.297 326.748,151.297 326.474 C 151.297 326.302,152.196 325.706,153.293 325.150 C 154.391 324.593,155.289 324.051,155.289 323.945 C 155.289 323.655,155.330 323.636,151.697 325.625 M146.108 328.966 C 146.108 329.198,145.928 329.277,145.709 329.142 C 145.489 329.006,145.309 329.085,145.309 329.318 C 145.309 329.807,145.417 329.827,146.275 329.498 C 146.971 329.231,147.139 328.543,146.507 328.543 C 146.287 328.543,146.108 328.733,146.108 328.966 M142.127 330.923 C 141.804 331.127,141.638 331.392,141.757 331.511 C 141.877 331.631,142.321 331.466,142.744 331.146 C 143.585 330.510,143.074 330.324,142.127 330.923 M138.021 333.299 C 136.212 334.459,136.214 334.686,138.024 333.773 C 138.957 333.303,139.721 332.832,139.721 332.726 C 139.721 332.385,139.145 332.579,138.021 333.299 M20.602 338.903 C 18.193 343.260,16.952 345.993,18.690 343.114 C 20.111 340.759,23.604 334.132,23.424 334.132 C 23.323 334.132,22.053 336.279,20.602 338.903 M64.481 334.968 C 65.344 336.420,70.410 343.958,70.760 344.311 C 71.561 345.119,70.087 342.628,68.008 339.660 C 65.617 336.246,65.422 335.744,66.852 336.681 C 68.504 337.763,68.484 337.398,66.826 336.206 C 64.472 334.512,64.091 334.311,64.481 334.968 M133.633 335.756 C 132.809 336.190,132.136 336.635,132.136 336.744 C 132.136 336.853,132.854 336.576,133.733 336.128 C 134.611 335.680,135.329 335.227,135.329 335.122 C 135.329 334.860,135.327 334.862,133.633 335.756 M129.142 338.157 C 128.044 338.787,127.286 339.307,127.458 339.312 C 127.894 339.325,131.737 337.355,131.737 337.119 C 131.737 336.768,131.160 336.999,129.142 338.157 M69.461 338.523 C 70.010 338.952,70.639 339.304,70.858 339.304 C 71.078 339.304,70.808 338.952,70.259 338.523 C 69.711 338.094,69.082 337.742,68.862 337.742 C 68.643 337.742,68.912 338.094,69.461 338.523 M74.251 341.463 C 74.251 341.572,74.790 342.046,75.449 342.515 C 76.108 342.984,76.647 343.278,76.647 343.168 C 76.647 343.058,76.108 342.585,75.449 342.116 C 74.790 341.647,74.251 341.353,74.251 341.463 M122.056 341.945 C 120.563 342.755,120.654 343.092,122.156 342.315 C 122.814 341.975,123.353 341.611,123.353 341.507 C 123.353 341.250,123.310 341.264,122.056 341.945 M78.044 344.357 C 79.848 346.110,80.639 346.664,80.639 346.176 C 80.639 345.940,79.785 345.172,78.743 344.470 L 76.846 343.193 78.044 344.357 M117.265 344.538 C 116.442 344.973,115.768 345.510,115.768 345.732 C 115.768 346.223,117.173 345.520,118.314 344.457 C 119.308 343.531,119.150 343.543,117.265 344.538 M16.367 346.108 C 16.132 346.547,16.083 346.906,16.257 346.906 C 16.432 346.906,16.799 346.547,17.073 346.108 C 17.349 345.666,17.398 345.309,17.183 345.309 C 16.969 345.309,16.602 345.669,16.367 346.108 M81.189 346.828 C 81.885 347.954,90.220 353.185,90.220 352.495 C 90.220 352.275,89.950 352.096,89.621 352.096 C 89.291 352.096,89.022 351.916,89.022 351.697 C 89.022 351.477,88.752 351.297,88.423 351.297 C 88.094 351.297,87.824 351.118,87.824 350.898 C 87.824 350.679,87.555 350.499,87.226 350.499 C 86.896 350.499,86.627 350.319,86.627 350.100 C 86.627 349.880,86.357 349.701,86.028 349.701 C 85.699 349.701,85.429 349.533,85.429 349.328 C 85.429 349.124,85.115 348.855,84.731 348.732 C 84.346 348.609,83.510 348.058,82.872 347.507 C 81.763 346.551,80.770 346.150,81.189 346.828 M112.675 346.994 C 112.181 347.232,111.776 347.590,111.776 347.789 C 111.776 347.988,111.642 348.069,111.477 347.970 C 111.312 347.870,110.946 348.039,110.663 348.345 C 109.933 349.135,110.327 349.043,112.588 347.897 C 115.086 346.632,115.166 345.792,112.675 346.994 M14.191 350.063 C 13.840 350.742,13.706 351.297,13.894 351.297 C 14.353 351.297,15.367 349.366,15.067 349.065 C 14.936 348.935,14.542 349.384,14.191 350.063 M74.251 349.138 C 74.251 349.563,76.440 352.478,76.766 352.486 C 76.941 352.491,76.528 351.687,75.848 350.699 C 74.687 349.011,74.251 348.585,74.251 349.138 M108.683 349.167 C 107.865 349.496,108.117 350.042,108.982 349.816 C 109.421 349.701,109.780 349.449,109.780 349.255 C 109.780 348.874,109.469 348.849,108.683 349.167 M103.293 352.324 C 101.801 353.134,101.892 353.471,103.393 352.695 C 104.052 352.354,104.591 351.990,104.591 351.886 C 104.591 351.629,104.548 351.644,103.293 352.324 M11.996 354.053 C 11.537 354.953,11.240 355.689,11.337 355.689 C 11.673 355.689,13.263 352.850,13.047 352.635 C 12.928 352.515,12.455 353.154,11.996 354.053 M78.959 355.988 C 80.010 357.470,81.288 359.366,81.798 360.201 C 82.308 361.036,82.808 361.637,82.908 361.537 C 83.159 361.286,77.804 353.293,77.385 353.293 C 77.200 353.293,77.908 354.506,78.959 355.988 M9.410 358.711 C 8.605 360.175,8.027 361.453,8.124 361.551 C 8.222 361.649,8.946 360.516,9.733 359.034 C 10.520 357.552,11.098 356.275,11.018 356.195 C 10.938 356.115,10.214 357.247,9.410 358.711 M83.326 363.375 C 83.187 363.739,82.390 364.408,81.556 364.863 C 80.722 365.319,79.501 366.047,78.842 366.483 C 78.184 366.918,77.330 367.383,76.946 367.516 C 76.562 367.649,76.248 367.875,76.248 368.019 C 76.248 368.163,75.394 368.725,74.351 369.270 C 73.308 369.814,72.380 370.304,72.289 370.359 C 72.197 370.414,72.220 370.557,72.339 370.676 C 72.532 370.869,81.292 365.772,83.189 364.363 C 83.603 364.055,83.861 363.558,83.761 363.259 C 83.623 362.844,83.520 362.871,83.326 363.375 M3.792 369.261 C 3.452 369.920,3.263 370.459,3.373 370.459 C 3.482 370.459,3.851 369.920,4.192 369.261 C 4.532 368.603,4.721 368.064,4.611 368.064 C 4.502 368.064,4.133 368.603,3.792 369.261 M1.178 374.091 C 0.719 374.990,0.412 375.795,0.496 375.878 C 0.579 375.962,1.039 375.226,1.516 374.243 C 2.604 372.003,2.310 371.871,1.178 374.091 M57.901 378.671 C 52.897 381.515,52.862 381.538,53.179 381.855 C 53.300 381.976,53.644 381.835,53.944 381.544 C 54.245 381.252,56.332 379.976,58.583 378.708 C 60.833 377.440,62.675 376.322,62.675 376.225 C 62.675 375.952,62.753 375.912,57.901 378.671 M46.651 385.249 L 45.709 386.067 47.006 385.439 C 48.283 384.820,48.646 384.431,47.948 384.431 C 47.753 384.431,47.169 384.799,46.651 385.249 M43.613 386.872 C 41.824 388.018,41.986 388.208,43.912 387.226 C 45.414 386.460,45.893 386.019,45.210 386.035 C 45.045 386.038,44.326 386.415,43.613 386.872 M38.825 389.530 C 37.455 390.315,36.400 391.024,36.482 391.106 C 36.649 391.273,41.916 388.443,41.916 388.187 C 41.916 387.852,41.250 388.141,38.825 389.530 M2.672 390.450 C 3.069 391.125,3.648 391.889,3.960 392.146 C 4.272 392.404,4.023 391.851,3.408 390.918 C 2.116 388.959,1.606 388.635,2.672 390.450 M27.844 395.435 C 26.801 395.978,25.948 396.512,25.948 396.621 C 25.948 396.730,26.846 396.365,27.944 395.808 C 29.042 395.252,29.940 394.710,29.940 394.604 C 29.940 394.340,29.976 394.326,27.844 395.435 M7.129 395.341 C 7.768 396.111,11.587 398.127,11.870 397.844 C 12.001 397.712,11.934 397.605,11.720 397.605 C 11.506 397.605,10.286 396.976,9.009 396.207 C 7.732 395.438,6.886 395.049,7.129 395.341 M17.066 399.084 C 17.560 399.179,18.368 399.179,18.862 399.084 C 19.356 398.989,18.952 398.911,17.964 398.911 C 16.976 398.911,16.572 398.989,17.066 399.084 "
              stroke="none" fill="#cccccc" fill-rule="evenodd"></path>
        <path id="path1"
              d="M344.103 1.308 C 337.745 3.476,331.961 9.254,327.759 17.636 C 326.914 19.321,326.087 20.579,325.922 20.430 C 325.756 20.281,325.738 20.365,325.882 20.617 C 326.025 20.868,325.714 22.215,325.189 23.611 C 324.021 26.718,323.749 26.772,319.019 24.815 C 306.945 19.821,298.923 27.781,295.952 47.705 C 295.724 49.234,295.467 50.683,295.246 51.697 C 295.150 52.136,295.057 52.809,295.041 53.194 C 295.019 53.690,294.678 53.892,293.862 53.892 C 291.949 53.892,290.214 53.425,290.487 52.984 C 290.627 52.757,290.559 52.684,290.335 52.823 C 290.111 52.961,288.743 52.827,287.295 52.524 C 282.592 51.540,280.071 52.854,277.781 57.485 C 276.868 59.329,276.481 66.511,277.156 69.062 C 278.543 74.302,279.212 79.756,279.215 85.828 C 279.218 93.526,278.737 95.178,273.346 105.988 C 265.972 120.774,256.952 134.540,255.559 133.134 C 255.158 132.729,256.124 125.762,256.638 125.349 C 256.774 125.240,256.939 124.341,257.003 123.353 C 257.067 122.365,257.293 121.497,257.504 121.423 C 257.716 121.349,257.786 121.122,257.659 120.917 C 257.392 120.484,259.912 108.040,260.302 107.870 C 260.445 107.808,260.478 107.314,260.374 106.773 C 260.271 106.231,260.342 105.788,260.532 105.788 C 260.723 105.788,260.889 105.294,260.903 104.691 C 260.930 103.456,263.045 90.748,263.377 89.820 C 263.495 89.491,263.553 88.820,263.505 88.330 C 263.457 87.840,263.545 87.232,263.701 86.979 C 263.858 86.727,264.025 85.871,264.074 85.076 C 264.123 84.282,264.278 82.375,264.418 80.838 C 264.840 76.221,264.669 65.099,264.152 63.473 C 263.726 62.133,263.115 57.742,263.310 57.426 C 263.426 57.239,263.364 57.086,263.173 57.086 C 262.982 57.086,262.586 56.150,262.293 55.007 C 262.000 53.864,260.099 49.687,258.068 45.726 C 254.542 38.847,252.794 34.764,251.310 29.940 C 250.362 26.856,248.879 24.463,247.462 23.730 C 246.407 23.185,240.799 21.889,240.007 22.008 C 238.541 22.228,236.515 20.687,236.912 19.654 C 237.024 19.360,236.958 19.218,236.765 19.338 C 236.571 19.457,236.310 19.148,236.185 18.649 C 235.569 16.195,230.643 12.391,228.067 12.379 C 227.586 12.377,227.082 12.196,226.946 11.976 C 226.626 11.458,224.871 11.458,224.551 11.976 C 224.415 12.196,223.951 12.375,223.519 12.375 C 223.088 12.375,221.712 12.735,220.463 13.174 C 219.214 13.613,218.055 13.972,217.888 13.972 C 217.722 13.972,216.107 12.628,214.300 10.985 C 203.397 1.070,191.411 1.610,186.151 12.252 C 184.516 15.559,184.125 18.515,184.065 27.992 C 184.030 33.606,183.678 35.034,181.407 38.772 C 179.893 41.264,178.443 44.946,178.443 46.297 C 178.443 46.742,178.308 47.106,178.144 47.107 C 177.979 47.108,177.843 48.006,177.841 49.103 C 177.840 50.200,177.974 51.098,178.141 51.098 C 178.307 51.098,178.445 51.412,178.447 51.796 C 178.461 54.305,181.987 58.983,186.677 62.715 L 189.147 64.680 189.034 66.771 C 188.971 67.921,188.824 69.401,188.705 70.060 C 186.632 81.618,189.052 87.266,197.656 90.955 C 200.587 92.211,200.797 92.574,200.158 95.290 C 199.858 96.563,199.610 98.823,199.607 100.312 C 199.594 106.029,201.183 107.529,210.903 110.977 C 219.436 114.003,224.730 118.991,225.487 124.716 C 225.896 127.818,225.646 141.118,225.178 141.118 C 225.132 141.118,225.034 141.567,224.959 142.116 C 224.884 142.665,224.084 144.816,223.181 146.896 L 221.539 150.679 235.669 164.809 L 249.799 178.939 253.843 177.501 C 260.454 175.150,262.213 174.885,270.019 175.064 L 276.302 175.207 279.599 176.803 C 285.237 179.532,287.160 182.119,290.019 190.818 C 292.332 197.857,293.788 200.047,296.538 200.623 C 297.125 200.746,297.917 201.015,298.298 201.222 C 299.202 201.711,300.895 201.704,301.065 201.210 C 301.138 200.998,302.212 200.773,303.451 200.711 C 304.691 200.649,305.645 200.499,305.571 200.377 C 305.498 200.254,306.220 199.864,307.177 199.509 L 308.917 198.865 310.200 202.047 C 313.579 210.429,319.882 216.754,324.866 216.763 C 327.322 216.767,329.076 215.983,333.064 213.097 L 335.788 211.125 340.527 215.727 C 353.120 227.956,358.163 228.749,364.332 219.470 C 365.320 217.983,366.160 216.743,366.198 216.714 C 366.236 216.685,370.500 216.547,375.672 216.407 L 385.077 216.153 387.764 214.830 C 399.615 208.996,400.055 198.103,388.937 185.750 L 385.993 182.479 386.642 178.565 C 386.999 176.412,387.417 174.381,387.569 174.052 C 388.953 171.069,386.721 166.754,382.790 164.807 C 378.926 162.894,378.995 162.978,378.681 159.816 C 378.226 155.241,378.037 154.360,377.105 152.495 C 375.947 150.178,373.056 148.670,367.276 147.366 C 361.658 146.099,359.366 145.016,357.030 142.523 C 354.590 139.918,352.897 139.042,349.222 138.483 C 347.619 138.239,346.038 137.908,345.709 137.747 C 345.379 137.586,344.437 137.535,343.615 137.633 C 342.792 137.731,341.804 137.679,341.419 137.517 C 339.736 136.809,308.938 136.805,307.284 137.512 C 306.898 137.677,305.958 137.738,305.194 137.649 C 304.430 137.560,303.757 137.615,303.699 137.770 C 303.641 137.926,302.425 138.114,300.998 138.188 C 299.571 138.263,298.313 138.427,298.204 138.554 C 298.094 138.680,296.297 139.109,294.212 139.505 C 292.126 139.901,287.491 141.016,283.913 141.981 C 280.335 142.946,277.236 143.630,277.027 143.501 C 276.818 143.372,276.647 143.434,276.647 143.640 C 276.647 143.970,267.418 146.507,266.216 146.507 C 263.768 146.507,283.924 132.034,292.415 127.695 C 301.487 123.060,306.815 121.667,315.569 121.644 C 320.938 121.630,323.208 121.850,330.339 123.078 C 340.210 124.777,344.440 123.798,347.313 119.150 C 348.167 117.767,349.089 112.360,348.518 112.081 C 348.029 111.842,346.506 106.428,346.835 106.099 C 347.028 105.906,348.965 105.485,351.138 105.164 C 353.312 104.843,356.437 104.282,358.084 103.918 C 359.731 103.554,361.347 103.222,361.677 103.181 C 362.006 103.139,362.545 102.999,362.874 102.869 C 363.204 102.739,363.832 102.579,364.271 102.514 C 364.711 102.449,366.626 101.626,368.528 100.687 C 377.360 96.324,379.202 90.382,374.975 79.886 C 374.234 78.045,373.697 76.469,373.783 76.384 C 373.868 76.298,375.266 75.860,376.889 75.411 C 388.745 72.129,398.052 63.473,399.601 54.290 C 400.632 48.176,398.698 45.258,390.328 40.300 C 387.397 38.564,387.437 38.890,389.483 33.533 C 392.582 25.417,393.702 19.058,392.612 15.768 C 390.786 10.258,384.914 6.035,380.362 6.956 C 379.636 7.103,378.674 7.272,378.223 7.331 C 377.773 7.391,377.234 7.541,377.026 7.665 C 376.817 7.789,376.018 8.019,375.250 8.176 C 374.481 8.333,371.425 9.422,368.458 10.597 C 362.012 13.148,361.782 13.146,360.479 10.521 C 356.470 2.439,350.551 -0.891,344.103 1.308 M163.604 135.391 C 163.312 135.535,161.035 136.130,158.544 136.714 C 144.381 140.033,130.252 149.237,122.327 160.306 C 119.956 163.617,113.470 174.963,102.639 194.744 C 97.630 203.892,93.078 212.186,92.524 213.174 C 89.480 218.599,82.635 232.052,82.635 232.607 C 82.635 233.136,90.810 243.661,94.206 247.505 C 94.691 248.054,98.618 252.704,102.933 257.840 C 107.248 262.975,112.620 269.352,114.870 272.011 C 118.332 276.102,119.880 278.430,118.663 277.716 C 112.099 273.866,94.946 263.585,88.224 259.472 C 79.907 254.384,73.828 250.742,72.178 249.859 C 71.325 249.402,71.180 249.648,51.795 284.431 C 47.634 291.896,42.296 301.417,39.932 305.589 C 35.269 313.819,21.948 337.740,15.257 349.900 C 12.962 354.072,8.763 361.664,5.927 366.771 C 0.120 377.227,-0.382 378.714,0.389 383.144 C 2.393 394.652,14.770 401.831,24.317 397.023 C 36.604 390.835,83.034 364.070,83.034 363.174 C 83.034 362.632,78.123 355.369,65.625 337.429 C 62.709 333.243,62.990 333.050,67.440 336.182 C 97.920 357.634,95.078 356.069,99.511 353.838 C 103.300 351.931,122.482 341.606,125.549 339.822 C 126.866 339.056,133.654 335.300,140.633 331.475 C 147.612 327.650,153.989 324.142,154.805 323.678 C 155.620 323.215,161.138 320.144,167.066 316.854 C 172.994 313.564,182.066 308.491,187.226 305.579 C 192.385 302.668,201.133 297.756,206.664 294.664 C 212.196 291.572,217.633 288.482,218.746 287.796 L 220.771 286.550 219.572 284.919 C 217.862 282.594,208.612 271.312,196.260 256.487 C 185.545 243.626,183.363 240.855,183.694 240.524 C 183.871 240.347,186.790 242.282,211.377 258.878 C 239.466 277.837,236.916 276.379,239.206 274.792 C 246.732 269.576,257.608 250.172,259.963 237.757 C 260.237 236.312,260.595 235.130,260.757 235.130 C 260.920 235.130,260.949 234.860,260.823 234.531 C 260.697 234.202,260.728 233.618,260.893 233.234 C 261.058 232.849,261.154 232.045,261.106 231.446 C 261.058 230.847,261.136 230.169,261.279 229.938 C 261.665 229.313,261.730 216.367,261.347 216.367 C 261.165 216.367,261.055 215.694,261.101 214.870 C 261.147 214.047,261.084 213.104,260.962 212.774 C 260.840 212.445,260.434 210.739,260.061 208.982 C 258.373 201.029,254.613 192.721,250.549 187.958 C 242.751 178.823,218.476 154.483,210.265 147.568 C 204.983 143.119,195.031 138.478,187.026 136.729 C 185.269 136.345,183.563 135.944,183.234 135.837 C 181.762 135.361,164.464 134.967,163.604 135.391 "
              stroke="none" fill="#fff" fill-rule="evenodd"></path>
        <path id="path2"
              d="M198.104 3.868 C 198.488 3.968,199.117 3.968,199.501 3.868 C 199.885 3.768,199.571 3.685,198.802 3.685 C 198.034 3.685,197.720 3.768,198.104 3.868 M192.914 4.780 C 191.981 5.203,191.218 5.638,191.218 5.746 C 191.218 5.855,191.981 5.615,192.914 5.214 C 193.847 4.813,194.880 4.388,195.210 4.270 C 195.742 4.079,195.742 4.053,195.210 4.032 C 194.880 4.020,193.847 4.356,192.914 4.780 M206.021 5.340 C 206.430 5.710,209.581 7.181,209.581 7.002 C 209.581 6.775,206.568 5.190,206.137 5.190 C 205.982 5.190,205.930 5.257,206.021 5.340 M189.003 7.685 L 187.425 9.381 189.122 7.803 C 190.055 6.935,190.818 6.172,190.818 6.107 C 190.818 5.805,190.471 6.107,189.003 7.685 M333.711 8.283 L 332.335 9.780 333.832 8.405 C 335.226 7.124,335.513 6.786,335.208 6.786 C 335.141 6.786,334.468 7.460,333.711 8.283 M382.835 6.917 C 383.123 7.200,387.625 8.688,387.625 8.501 C 387.625 8.414,387.041 8.106,386.327 7.817 C 384.852 7.220,382.536 6.623,382.835 6.917 M375.749 7.632 C 375.035 7.838,374.451 8.095,374.451 8.203 C 374.451 8.492,376.585 7.938,377.026 7.533 C 377.461 7.135,377.475 7.134,375.749 7.632 M388.423 9.307 C 388.423 9.375,389.007 9.959,389.721 10.604 L 391.018 11.776 389.845 10.479 C 388.753 9.270,388.423 8.998,388.423 9.307 M391.246 12.176 C 391.246 12.395,391.503 13.024,391.816 13.573 C 392.130 14.122,392.387 14.391,392.387 14.172 C 392.387 13.952,392.130 13.323,391.816 12.774 C 391.503 12.226,391.246 11.956,391.246 12.176 M392.945 19.361 C 392.947 20.898,393.019 21.478,393.106 20.650 C 393.192 19.822,393.191 18.564,393.102 17.855 C 393.014 17.147,392.944 17.824,392.945 19.361 M184.133 20.160 C 184.137 21.038,184.219 21.350,184.314 20.854 C 184.410 20.357,184.406 19.638,184.306 19.257 C 184.206 18.875,184.128 19.281,184.133 20.160 M245.908 23.040 C 246.238 23.162,246.866 23.427,247.305 23.629 C 248.091 23.990,248.091 23.986,247.329 23.375 C 246.903 23.034,246.274 22.769,245.932 22.786 C 245.394 22.813,245.391 22.848,245.908 23.040 M311.681 23.037 C 312.178 23.132,312.896 23.129,313.278 23.029 C 313.660 22.929,313.253 22.851,312.375 22.855 C 311.497 22.860,311.185 22.941,311.681 23.037 M316.168 23.637 C 316.277 23.745,316.992 24.045,317.755 24.303 C 318.519 24.561,318.968 24.600,318.753 24.390 C 318.539 24.180,317.824 23.881,317.166 23.725 C 316.507 23.568,316.058 23.529,316.168 23.637 M319.361 24.884 C 319.361 24.987,319.941 25.274,320.650 25.521 C 321.358 25.768,321.762 25.805,321.548 25.605 C 321.093 25.179,319.361 24.608,319.361 24.884 M391.463 27.843 C 391.087 29.106,390.675 30.389,390.547 30.694 C 390.418 31.004,390.490 31.141,390.711 31.005 C 391.141 30.739,392.580 25.980,392.312 25.712 C 392.221 25.621,391.840 26.581,391.463 27.843 M298.182 36.627 C 297.372 38.844,297.351 38.930,297.726 38.523 C 298.164 38.049,299.044 35.529,298.772 35.529 C 298.668 35.529,298.403 36.023,298.182 36.627 M297.048 40.578 C 296.823 41.424,296.543 42.924,296.425 43.912 C 296.304 44.927,296.539 44.320,296.965 42.515 C 297.732 39.270,297.797 37.768,297.048 40.578 M283.433 51.830 C 283.433 52.013,283.972 52.162,284.631 52.162 C 285.289 52.162,285.828 52.013,285.828 51.830 C 285.828 51.647,285.289 51.497,284.631 51.497 C 283.972 51.497,283.433 51.647,283.433 51.830 M263.723 61.309 C 263.862 62.389,264.107 63.419,264.267 63.597 C 264.428 63.775,264.412 62.989,264.232 61.850 C 263.809 59.178,263.391 58.733,263.723 61.309 M276.340 63.473 C 276.340 64.242,276.422 64.556,276.523 64.172 C 276.623 63.787,276.623 63.159,276.523 62.774 C 276.422 62.390,276.340 62.705,276.340 63.473 M264.300 65.902 C 264.315 66.432,264.490 67.226,264.689 67.665 C 264.941 68.221,264.977 67.979,264.808 66.866 C 264.526 65.013,264.259 64.507,264.300 65.902 M392.793 66.567 L 391.417 68.064 392.914 66.688 C 394.308 65.408,394.595 65.070,394.290 65.070 C 394.223 65.070,393.550 65.744,392.793 66.567 M264.812 72.854 C 264.811 74.830,264.879 75.689,264.962 74.763 C 265.046 73.836,265.047 72.219,264.965 71.170 C 264.882 70.120,264.814 70.878,264.812 72.854 M373.882 77.046 C 374.028 77.595,374.315 78.313,374.518 78.643 C 374.776 79.059,374.807 78.937,374.621 78.244 C 374.475 77.695,374.188 76.976,373.985 76.647 C 373.727 76.231,373.696 76.352,373.882 77.046 M264.540 78.998 C 264.392 79.736,264.291 80.721,264.315 81.188 C 264.339 81.654,264.518 81.228,264.712 80.240 C 264.907 79.251,265.008 78.266,264.937 78.050 C 264.866 77.834,264.687 78.261,264.540 78.998 M278.735 79.042 C 278.735 79.810,278.817 80.125,278.918 79.741 C 279.018 79.356,279.018 78.728,278.918 78.343 C 278.817 77.959,278.735 78.273,278.735 79.042 M375.478 81.038 C 375.625 81.587,375.912 82.305,376.115 82.635 C 376.372 83.051,376.404 82.929,376.218 82.236 C 376.071 81.687,375.785 80.968,375.581 80.639 C 375.324 80.223,375.293 80.344,375.478 81.038 M188.030 81.271 C 188.033 81.692,188.219 82.305,188.441 82.635 C 188.737 83.072,188.774 82.911,188.579 82.036 C 188.250 80.568,188.022 80.249,188.030 81.271 M279.181 85.828 C 279.181 87.695,279.250 88.458,279.334 87.525 C 279.418 86.592,279.418 85.065,279.334 84.132 C 279.250 83.199,279.181 83.962,279.181 85.828 M264.121 83.648 C 263.984 84.005,263.888 84.597,263.907 84.963 C 263.925 85.329,264.099 85.099,264.293 84.451 C 264.669 83.191,264.536 82.568,264.121 83.648 M263.626 87.202 C 263.505 87.519,263.476 88.103,263.562 88.500 C 263.660 88.950,263.796 88.734,263.926 87.924 C 264.143 86.565,264.002 86.224,263.626 87.202 M263.340 89.687 C 263.194 89.834,263.085 90.328,263.099 90.785 C 263.122 91.550,263.155 91.540,263.507 90.661 C 263.898 89.683,263.817 89.210,263.340 89.687 M278.689 91.681 C 278.664 92.155,278.291 93.675,277.860 95.057 C 277.430 96.439,277.150 97.642,277.237 97.730 C 277.537 98.030,279.108 92.255,278.922 91.536 C 278.770 90.951,278.727 90.977,278.689 91.681 M371.113 99.243 C 370.045 99.989,369.344 100.599,369.556 100.599 C 369.989 100.599,373.253 98.306,373.253 98.001 C 373.253 97.739,373.324 97.698,371.113 99.243 M360.479 103.393 C 359.657 103.657,359.622 103.719,360.279 103.747 C 360.719 103.765,361.347 103.606,361.677 103.393 C 362.376 102.941,361.890 102.941,360.479 103.393 M220.559 116.567 C 221.416 117.445,222.208 118.164,222.318 118.164 C 222.428 118.164,221.816 117.445,220.958 116.567 C 220.101 115.689,219.309 114.970,219.199 114.970 C 219.089 114.970,219.701 115.689,220.559 116.567 M224.807 122.954 C 224.807 123.283,224.961 123.912,225.150 124.351 C 225.366 124.855,225.493 124.928,225.493 124.551 C 225.493 124.222,225.338 123.593,225.150 123.154 C 224.933 122.650,224.807 122.577,224.807 122.954 M225.458 130.475 C 225.628 137.684,225.808 138.489,225.875 132.335 C 225.908 129.261,225.804 126.538,225.643 126.284 C 225.481 126.029,225.398 127.915,225.458 130.475 M255.181 132.610 C 255.268 132.871,255.553 133.155,255.814 133.242 C 256.105 133.339,256.195 133.157,256.045 132.768 C 255.767 132.042,254.942 131.891,255.181 132.610 M167.665 134.917 C 166.091 135.109,167.097 135.202,171.213 135.246 C 174.372 135.279,176.887 135.245,176.801 135.171 C 176.443 134.858,169.685 134.670,167.665 134.917 M279.641 135.564 L 278.443 136.593 279.741 135.734 C 280.454 135.262,281.038 134.798,281.038 134.703 C 281.038 134.405,280.869 134.509,279.641 135.564 M179.641 135.311 C 179.970 135.534,180.584 135.719,181.005 135.722 C 182.026 135.731,181.707 135.502,180.240 135.174 C 179.365 134.978,179.203 135.015,179.641 135.311 M311.178 136.926 L 309.980 137.231 311.178 137.250 C 311.836 137.261,312.735 137.115,313.174 136.926 L 313.972 136.583 313.174 136.602 C 312.735 136.613,311.836 136.759,311.178 136.926 M320.675 136.823 C 322.166 136.900,324.502 136.900,325.865 136.822 C 327.228 136.744,326.008 136.681,323.154 136.682 C 320.299 136.683,319.184 136.746,320.675 136.823 M334.331 136.926 C 334.770 137.115,335.758 137.261,336.527 137.250 L 337.924 137.231 336.727 136.926 C 334.934 136.470,333.270 136.470,334.331 136.926 M306.387 137.325 C 305.617 137.656,305.620 137.669,306.463 137.696 C 306.945 137.712,307.449 137.545,307.585 137.325 C 307.877 136.853,307.486 136.853,306.387 137.325 M341.118 137.325 C 341.253 137.545,341.758 137.712,342.239 137.696 C 343.082 137.669,343.085 137.656,342.315 137.325 C 341.217 136.853,340.826 136.853,341.118 137.325 M275.434 138.552 L 274.052 139.778 275.549 138.704 C 276.872 137.755,277.302 137.325,276.931 137.325 C 276.868 137.325,276.194 137.877,275.434 138.552 M224.396 142.959 C 224.150 143.664,224.018 144.311,224.104 144.396 C 224.189 144.482,224.460 143.975,224.706 143.269 C 224.952 142.564,225.083 141.916,224.998 141.831 C 224.913 141.746,224.642 142.253,224.396 142.959 M223.219 145.925 C 222.550 147.393,222.677 147.706,223.401 146.372 C 223.738 145.749,223.940 145.164,223.849 145.073 C 223.757 144.982,223.474 145.365,223.219 145.925 M226.148 155.689 C 228.776 158.323,231.015 160.479,231.125 160.479 C 231.235 160.479,229.175 158.323,226.547 155.689 C 223.919 153.054,221.679 150.898,221.569 150.898 C 221.460 150.898,223.520 153.054,226.148 155.689 M217.166 153.892 C 218.358 155.100,219.424 156.088,219.534 156.088 C 219.643 156.088,218.757 155.100,217.565 153.892 C 216.372 152.685,215.307 151.697,215.197 151.697 C 215.087 151.697,215.973 152.685,217.166 153.892 M240.319 169.860 C 245.256 174.800,249.385 178.842,249.494 178.842 C 249.604 178.842,245.655 174.800,240.719 169.860 C 235.782 164.920,231.653 160.878,231.544 160.878 C 231.434 160.878,235.383 164.920,240.319 169.860 M230.339 166.667 C 232.857 169.192,235.007 171.257,235.117 171.257 C 235.226 171.257,233.256 169.192,230.739 166.667 C 228.221 164.142,226.071 162.076,225.961 162.076 C 225.851 162.076,227.822 164.142,230.339 166.667 M264.179 175.140 C 264.896 175.228,265.974 175.227,266.574 175.136 C 267.174 175.044,266.587 174.972,265.269 174.974 C 263.952 174.976,263.461 175.051,264.179 175.140 M275.083 175.393 C 275.175 175.472,275.788 175.657,276.447 175.804 C 277.322 176.000,277.483 175.963,277.046 175.667 C 276.507 175.302,274.683 175.047,275.083 175.393 M242.294 179.017 C 243.051 179.799,243.738 180.439,243.821 180.439 C 244.167 180.439,242.068 178.078,241.517 177.847 C 241.188 177.709,241.537 178.236,242.294 179.017 M247.904 185.030 C 248.649 185.798,249.348 186.427,249.458 186.427 C 249.568 186.427,249.048 185.798,248.303 185.030 C 247.559 184.261,246.859 183.633,246.750 183.633 C 246.640 183.633,247.159 184.261,247.904 185.030 M389.222 186.153 C 389.222 186.222,389.805 186.805,390.519 187.450 L 391.816 188.623 390.644 187.325 C 389.551 186.116,389.222 185.844,389.222 186.153 M392.999 190.719 C 393.615 191.652,394.194 192.415,394.287 192.415 C 394.575 192.415,393.047 189.986,392.447 189.490 C 392.135 189.233,392.384 189.785,392.999 190.719 M316.567 212.575 C 317.312 213.343,318.011 213.972,318.121 213.972 C 318.230 213.972,317.711 213.343,316.966 212.575 C 316.221 211.806,315.522 211.178,315.412 211.178 C 315.302 211.178,315.822 211.806,316.567 212.575 M334.879 211.876 C 334.380 212.513,334.395 212.525,335.048 212.012 C 335.689 211.508,335.940 211.613,337.443 213.010 L 339.122 214.571 337.544 212.874 C 335.759 210.955,335.637 210.910,334.879 211.876 M261.583 222.754 C 261.583 225.986,261.648 226.489,261.863 224.950 C 262.016 223.852,262.016 221.966,261.862 220.758 C 261.633 218.966,261.582 219.332,261.583 222.754 M352.707 225.569 C 353.052 226.127,356.502 226.492,356.974 226.020 C 357.277 225.717,357.179 225.652,356.636 225.793 C 356.216 225.903,355.113 225.823,354.187 225.615 C 353.260 225.406,352.594 225.386,352.707 225.569 M192.814 246.469 C 192.814 246.578,193.623 247.224,194.611 247.904 C 195.599 248.584,196.407 249.050,196.407 248.941 C 196.407 248.831,195.599 248.185,194.611 247.505 C 193.623 246.825,192.814 246.359,192.814 246.469 M60.479 268.263 C 60.138 268.922,59.950 269.461,60.059 269.461 C 60.169 269.461,60.538 268.922,60.878 268.263 C 61.219 267.605,61.408 267.066,61.298 267.066 C 61.188 267.066,60.820 267.605,60.479 268.263 M43.313 299.002 C 42.973 299.661,42.784 300.200,42.894 300.200 C 43.003 300.200,43.372 299.661,43.713 299.002 C 44.053 298.343,44.242 297.804,44.132 297.804 C 44.022 297.804,43.654 298.343,43.313 299.002 M163.074 318.989 C 162.415 319.411,162.081 319.757,162.331 319.758 C 162.581 319.760,163.210 319.407,163.728 318.975 C 164.915 317.987,164.630 317.993,163.074 318.989 M65.070 336.727 C 65.750 337.715,66.396 338.523,66.505 338.523 C 66.615 338.523,66.149 337.715,65.469 336.727 C 64.789 335.739,64.143 334.930,64.034 334.930 C 63.924 334.930,64.390 335.739,65.070 336.727 M66.536 335.760 C 67.031 336.360,69.461 337.889,69.461 337.601 C 69.461 337.508,68.698 336.928,67.764 336.313 C 66.831 335.697,66.279 335.449,66.536 335.760 M99.202 353.982 C 98.543 354.343,97.375 354.867,96.607 355.146 C 95.838 355.425,95.530 355.661,95.921 355.671 C 96.643 355.689,100.599 353.841,100.599 353.486 C 100.599 353.223,100.563 353.236,99.202 353.982 M7.340 363.486 C 6.976 364.041,6.751 364.569,6.840 364.657 C 6.928 364.746,7.304 364.291,7.674 363.647 C 8.497 362.211,8.253 362.093,7.340 363.486 M5.389 393.214 C 6.247 394.092,7.038 394.810,7.148 394.810 C 7.258 394.810,6.646 394.092,5.788 393.214 C 4.931 392.335,4.139 391.617,4.030 391.617 C 3.920 391.617,4.532 392.335,5.389 393.214 "
              stroke="none" fill="#595959" fill-rule="evenodd"></path>
        <path id="path3"
              d="M334.712 6.886 L 333.134 8.583 334.830 7.005 C 336.408 5.537,336.710 5.190,336.408 5.190 C 336.343 5.190,335.580 5.953,334.712 6.886 M389.222 9.698 C 389.551 9.983,390.067 10.477,390.368 10.797 C 390.837 11.294,390.853 11.255,390.479 10.526 C 390.239 10.058,389.723 9.563,389.332 9.427 C 388.714 9.212,388.700 9.247,389.222 9.698 M260.479 49.900 C 260.820 50.559,261.188 51.098,261.298 51.098 C 261.408 51.098,261.219 50.559,260.878 49.900 C 260.538 49.242,260.169 48.703,260.059 48.703 C 259.950 48.703,260.138 49.242,260.479 49.900 M181.551 58.483 C 181.777 58.922,182.473 59.730,183.097 60.278 L 184.232 61.275 183.037 59.879 C 181.144 57.667,181.118 57.643,181.551 58.483 M348.503 114.571 C 348.503 115.299,348.669 115.713,348.902 115.569 C 349.122 115.433,349.301 114.984,349.301 114.571 C 349.301 114.158,349.122 113.709,348.902 113.573 C 348.669 113.429,348.503 113.843,348.503 114.571 M220.758 117.166 C 221.503 117.934,222.203 118.563,222.312 118.563 C 222.422 118.563,221.903 117.934,221.158 117.166 C 220.413 116.397,219.714 115.768,219.604 115.768 C 219.494 115.768,220.014 116.397,220.758 117.166 M321.271 136.423 C 322.431 136.503,324.227 136.503,325.263 136.421 C 326.298 136.339,325.349 136.273,323.154 136.274 C 320.958 136.275,320.111 136.342,321.271 136.423 M189.437 136.867 C 189.924 137.310,192.493 138.179,192.701 137.971 C 192.787 137.885,192.002 137.523,190.955 137.166 C 189.909 136.810,189.226 136.675,189.437 136.867 M357.654 143.061 C 358.735 144.234,358.948 144.349,358.662 143.604 C 358.555 143.325,358.067 142.852,357.577 142.554 C 356.728 142.036,356.731 142.059,357.654 143.061 M212.375 149.027 C 212.375 149.096,212.959 149.680,213.673 150.325 L 214.970 151.497 213.798 150.200 C 212.705 148.990,212.375 148.719,212.375 149.027 M221.158 150.739 C 221.158 150.944,223.089 152.995,225.449 155.297 L 229.741 159.481 225.549 155.103 C 223.244 152.695,221.312 150.644,221.257 150.545 C 221.203 150.447,221.158 150.534,221.158 150.739 M221.540 157.784 C 222.519 158.827,223.372 159.681,223.436 159.681 C 223.736 159.681,223.419 159.322,221.657 157.668 L 219.760 155.888 221.540 157.784 M238.124 174.451 C 239.205 175.549,240.180 176.447,240.289 176.447 C 240.399 176.447,239.604 175.549,238.523 174.451 C 237.442 173.353,236.467 172.455,236.357 172.455 C 236.248 172.455,237.042 173.353,238.124 174.451 M242.715 178.719 C 242.715 178.938,243.074 179.443,243.513 179.840 C 243.952 180.238,244.311 180.383,244.311 180.164 C 244.311 179.944,243.952 179.439,243.513 179.042 C 243.074 178.645,242.715 178.499,242.715 178.719 M247.106 183.832 C 247.851 184.601,248.550 185.230,248.660 185.230 C 248.769 185.230,248.250 184.601,247.505 183.832 C 246.760 183.064,246.061 182.435,245.951 182.435 C 245.841 182.435,246.361 183.064,247.106 183.832 M388.623 185.230 C 389.480 186.108,390.272 186.826,390.382 186.826 C 390.491 186.826,389.880 186.108,389.022 185.230 C 388.164 184.351,387.373 183.633,387.263 183.633 C 387.153 183.633,387.765 184.351,388.623 185.230 M99.202 200.000 C 98.861 200.659,98.672 201.198,98.782 201.198 C 98.892 201.198,99.260 200.659,99.601 200.000 C 99.941 199.341,100.130 198.802,100.021 198.802 C 99.911 198.802,99.542 199.341,99.202 200.000 M337.725 213.687 C 337.725 213.790,338.750 214.750,340.004 215.820 C 341.257 216.889,342.155 217.556,341.999 217.302 C 341.656 216.744,337.725 213.419,337.725 213.687 M370.359 216.656 C 371.073 216.745,372.241 216.745,372.954 216.656 C 373.668 216.567,373.084 216.495,371.657 216.495 C 370.230 216.495,369.646 216.567,370.359 216.656 M358.683 225.177 C 358.024 225.599,357.665 225.944,357.884 225.943 C 358.104 225.943,358.822 225.586,359.481 225.150 C 360.140 224.713,360.499 224.369,360.279 224.383 C 360.060 224.398,359.341 224.755,358.683 225.177 M185.360 242.920 C 185.618 243.197,185.920 243.310,186.033 243.169 C 186.145 243.029,186.377 242.802,186.548 242.665 C 186.719 242.527,186.417 242.415,185.876 242.415 C 185.102 242.415,184.992 242.523,185.360 242.920 M106.200 262.575 C 106.207 262.740,106.701 263.219,107.298 263.641 L 108.383 264.407 107.415 263.341 C 106.398 262.221,106.180 262.083,106.200 262.575 M114.741 345.900 C 114.318 346.220,114.152 346.485,114.371 346.488 C 114.964 346.498,115.978 345.785,115.728 345.535 C 115.608 345.415,115.164 345.580,114.741 345.900 "
              stroke="none" fill="#7c7c7c" fill-rule="evenodd"></path>
        <path id="path4"
              d="M214.371 10.978 C 215.116 11.747,215.815 12.375,215.925 12.375 C 216.035 12.375,215.515 11.747,214.770 10.978 C 214.026 10.210,213.326 9.581,213.217 9.581 C 213.107 9.581,213.626 10.210,214.371 10.978 M328.643 136.802 C 329.027 136.903,329.656 136.903,330.040 136.802 C 330.424 136.702,330.110 136.620,329.341 136.620 C 328.573 136.620,328.258 136.702,328.643 136.802 M223.553 159.806 C 223.553 159.874,224.137 160.458,224.850 161.103 L 226.148 162.275 224.975 160.978 C 223.882 159.769,223.553 159.497,223.553 159.806 M82.834 230.739 C 82.494 231.397,82.305 231.936,82.415 231.936 C 82.524 231.936,82.893 231.397,83.234 230.739 C 83.574 230.080,83.763 229.541,83.653 229.541 C 83.543 229.541,83.175 230.080,82.834 230.739 "
              stroke="none" fill="#747474" fill-rule="evenodd"></path>
    </g>
</svg>
