<?xml version="1.0" encoding="iso-8859-1"?>
<!-- Generator: Adobe Illustrator 19.0.0, SVG Export Plug-In . SVG Version: 6.00 Build 0)  -->
<svg version="1.1" id="Layer_1" xmlns="http://www.w3.org/2000/svg" xmlns:xlink="http://www.w3.org/1999/xlink" x="0px" y="0px"
	 viewBox="0 0 301.2 301.2" style="enable-background:new 0 0 301.2 301.2;" xml:space="preserve">
<g>
	<g>
		<g>
			<path d="M244.349,58.474c11.226-4.439,19.191-15.393,19.191-28.178C263.54,13.59,249.95,0,233.245,0H67.956
				C51.251,0,37.661,13.59,37.661,30.296c0,12.786,7.965,23.74,19.191,28.178L40.187,75.139c-1.618,1.618-2.527,3.811-2.527,6.1
				v52.782v76.499v57.906c0,18.072,14.703,32.775,32.775,32.775h160.33c18.072,0,32.775-14.703,32.775-32.775v-57.906V134.02V81.238
				c0.001-2.289-0.907-4.482-2.525-6.1L244.349,58.474z M54.911,30.296c0-7.193,5.851-13.046,13.044-13.046h165.288
				c7.193,0,13.044,5.852,13.044,13.046c0,7.193-5.851,13.046-13.044,13.046c-6.032,0-159.651,0-165.288,0
				C60.763,43.341,54.911,37.489,54.911,30.296z M246.291,268.425c0,8.559-6.966,15.524-15.525,15.524H70.436
				c-8.561,0-15.525-6.964-15.525-15.525v-49.28h191.38V268.425z M246.291,201.894H54.911v-59.249h191.38V201.894z M246.291,125.396
				H54.911V84.81l24.22-24.219h142.939l24.22,24.22V125.396z"/>
			<path d="M87.351,180.895h126.5c4.763,0,8.625-3.861,8.625-8.625s-3.862-8.625-8.625-8.625h-126.5
				c-4.763,0-8.625,3.861-8.625,8.625S82.587,180.895,87.351,180.895z"/>
		</g>
	</g>
</g>
<g>
</g>
<g>
</g>
<g>
</g>
<g>
</g>
<g>
</g>
<g>
</g>
<g>
</g>
<g>
</g>
<g>
</g>
<g>
</g>
<g>
</g>
<g>
</g>
<g>
</g>
<g>
</g>
<g>
</g>
</svg>
