<?xml version="1.0" encoding="iso-8859-1"?>
<!-- Generator: Adobe Illustrator 19.0.0, SVG Export Plug-In . SVG Version: 6.00 Build 0)  -->
<svg version="1.1" id="Layer_1" xmlns="http://www.w3.org/2000/svg" xmlns:xlink="http://www.w3.org/1999/xlink" x="0px" y="0px"
	 viewBox="0 0 512.003 512.003" style="enable-background:new 0 0 512.003 512.003;" xml:space="preserve">
<g>
	<g>
		<path d="M454.729,167.854c-23.408-27.654-53.09-44.126-76.94-57.361c-8.602-4.773-16.727-9.281-23.523-13.725
			c-39.314-25.704-54.741-82.164-54.883-82.696L295.69,0l-79.331,0.036l-3.732,13.999c-0.151,0.567-15.578,57.027-54.894,82.733
			c-6.795,4.444-14.92,8.952-23.522,13.725c-23.85,13.235-53.532,29.707-76.94,57.361c-27.56,32.557-40.957,73.547-40.957,125.308
			c0,62.28,32.265,111.228,93.309,141.551c30.187,14.995,62.402,22.976,89.359,27.209l-13.083,30.04l34.576,15.059l16.669-38.274
			v43.255h37.714v-43.255l16.669,38.274l34.576-15.059l-13.083-30.04c26.957-4.233,59.172-12.214,89.359-27.209
			c61.043-30.323,93.309-79.27,93.309-141.551C495.686,241.4,482.288,200.412,454.729,167.854z M385.598,400.937
			c-52.226,25.943-112.399,27.958-129.599,27.958c-17.2,0-77.373-2.016-129.599-27.958c-48.023-23.856-72.373-60.117-72.373-107.774
			c0-95.04,52.321-124.074,98.483-149.691c9.216-5.114,17.922-9.946,25.86-15.137c37.998-24.843,57.969-68.277,66.165-90.621h22.93
			c8.196,22.344,28.165,65.778,66.162,90.62c7.94,5.191,16.646,10.023,25.862,15.137c46.162,25.616,98.483,54.652,98.483,149.691
			C457.972,340.819,433.623,377.08,385.598,400.937z"/>
	</g>
</g>
<g>
	<g>
		<path d="M151.098,170.248c-21.406,10.702-36.664,30.639-45.693,45.479c-11.439,18.799-19.592,40.225-22.959,60.332l37.196,6.229
			c5.457-32.586,27.133-67.714,48.321-78.309L151.098,170.248z"/>
	</g>
</g>
<g>
</g>
<g>
</g>
<g>
</g>
<g>
</g>
<g>
</g>
<g>
</g>
<g>
</g>
<g>
</g>
<g>
</g>
<g>
</g>
<g>
</g>
<g>
</g>
<g>
</g>
<g>
</g>
<g>
</g>
</svg>
